HIERARCHY
ROOT root
{
	OFFSET 0.000000 0.000000 0.000000
	CHANNELS 6 Xposition Yposition Zposition Zrotation Yrotation Xrotation
	JOINT lhip
	{
		OFFSET 0.058581 -0.082280 -0.017664
		CHANNELS 3 Zrotation Yrotation Xrotation
		JOINT lknee
		{
			OFFSET 0.043451 -0.386469 0.008037
			CHANNELS 3 Zrotation Yrotation Xrotation
			JOINT lankle
			{
				OFFSET -0.014790 -0.426874 -0.037428
				CHANNELS 3 Zrotation Yrotation Xrotation
				JOINT ltoe
				{
					OFFSET 0.041054 -0.060286 0.122042
					CHANNELS 3 Zrotation Yrotation Xrotation
					End Site
					{
						OFFSET 0.000000 0.000000 0.000000
					}
				}
			}
		}
	}
	JOINT rhip
	{
		OFFSET -0.060310 -0.090513 -0.013543
		CHANNELS 3 Zrotation Yrotation Xrotation
		JOINT rknee
		{
			OFFSET -0.043257 -0.383688 -0.004843
			CHANNELS 3 Zrotation Yrotation Xrotation
			JOINT rankle
			{
				OFFSET 0.019056 -0.420046 -0.034562
				CHANNELS 3 Zrotation Yrotation Xrotation
				JOINT rtoe
				{
					OFFSET -0.034840 -0.062106 0.130323
					CHANNELS 3 Zrotation Yrotation Xrotation
					End Site
					{
						OFFSET 0.000000 0.000000 0.000000
					}
				}
			}
		}
	}
	JOINT lowerback
	{
		OFFSET 0.004439 0.124404 -0.038385
		CHANNELS 3 Zrotation Yrotation Xrotation
		JOINT upperback
		{
			OFFSET 0.004488 0.137956 0.026820
			CHANNELS 3 Zrotation Yrotation Xrotation
			JOINT chest
			{
				OFFSET -0.002265 0.056032 0.002855
				CHANNELS 3 Zrotation Yrotation Xrotation
				JOINT lowerneck
				{
					OFFSET -0.013390 0.211636 -0.033468
					CHANNELS 3 Zrotation Yrotation Xrotation
					JOINT upperneck
					{
						OFFSET 0.010113 0.088937 0.050410
						CHANNELS 3 Zrotation Yrotation Xrotation
						End Site
						{
							OFFSET 0.000000 0.000000 0.000000
						}
					}
				}
				JOINT lclavicle
				{
					OFFSET 0.071702 0.114000 -0.018898
					CHANNELS 3 Zrotation Yrotation Xrotation
					JOINT lshoulder
					{
						OFFSET 0.122921 0.045205 -0.019046
						CHANNELS 3 Zrotation Yrotation Xrotation
						JOINT lelbow
						{
							OFFSET 0.255332 -0.015649 -0.022946
							CHANNELS 3 Zrotation Yrotation Xrotation
							JOINT lwrist
							{
								OFFSET 0.265709 0.012698 -0.007375
								CHANNELS 3 Zrotation Yrotation Xrotation
								End Site
								{
									OFFSET 0.000000 0.000000 0.000000
								}
							}
						}
					}
				}
				JOINT rclavicle
				{
					OFFSET -0.082954 0.112472 -0.023707
					CHANNELS 3 Zrotation Yrotation Xrotation
					JOINT rshoulder
					{
						OFFSET -0.113228 0.046853 -0.008472
						CHANNELS 3 Zrotation Yrotation Xrotation
						JOINT relbow
						{
							OFFSET -0.260127 -0.014369 -0.031269
							CHANNELS 3 Zrotation Yrotation Xrotation
							JOINT rwrist
							{
								OFFSET -0.269108 0.006794 -0.006027
								CHANNELS 3 Zrotation Yrotation Xrotation
								End Site
								{
									OFFSET 0.000000 0.000000 0.000000
								}
							}
						}
					}
				}
			}
		}
	}
}
MOTION
Frames: 7
Frame Time: 0.033333
-0.492827 0.156645 1.622967 -54.300124 -0.799840 88.393466 -0.027427 -3.158599 -1.759999 -3.310232 -17.866542 2.675118 -1.136223 4.331375 -12.864793 0.000000 -0.000000 0.000000 -0.806362 4.219445 -7.600255 -1.677379 17.194304 16.603403 5.583663 0.522944 -13.954377 0.000000 -0.000000 0.000000 0.608211 2.657389 12.579022 -0.595396 2.694709 0.980752 -2.423266 3.344398 2.252591 3.278321 5.629934 1.880374 -0.341695 -3.889799 18.684167 -31.651969 2.792023 -3.673336 -49.886418 -7.187104 11.196299 9.191356 -25.989271 1.399664 10.523219 -7.248879 -1.757800 30.178019 0.785651 4.295485 49.058459 3.632408 14.465415 -16.349730 29.735250 3.274440 2.376458 5.256572 4.959797 
-0.495886 0.162229 1.623380 -51.703204 -1.069451 87.908484 -0.112935 -3.855914 -1.861658 -3.333214 -18.991682 3.436813 -1.507513 3.766308 -12.901129 0.000000 -0.000000 0.000000 -0.814978 3.965916 -6.339029 -1.791428 15.836437 15.780471 5.169271 -0.572073 -13.530357 0.000000 -0.000000 0.000000 1.046116 2.579650 13.345887 -0.501626 2.671992 0.705471 -2.281702 3.480198 2.219923 3.559356 5.327947 1.678825 -0.275018 -4.120335 19.028254 -31.328255 3.127168 -3.461316 -50.170012 -6.672763 11.297515 8.845859 -26.877349 2.245247 10.052561 -7.544587 -2.487867 30.053631 1.205558 4.235192 48.362181 3.891222 14.264383 -15.710369 29.075417 3.601540 2.018434 5.391831 5.393654 
-0.497876 0.168698 1.623068 -49.027372 -1.336242 87.944049 -0.063413 -4.514940 -3.092259 -3.850134 -19.877738 5.068897 -1.658923 2.930005 -12.898510 0.000000 -0.000000 0.000000 -0.654100 3.168572 -6.005437 -1.884111 15.074181 15.420766 4.463956 -1.894364 -13.185670 0.000000 -0.000000 0.000000 1.286543 3.008143 12.953337 -0.085795 2.523187 1.146527 -1.939741 3.272750 2.607945 3.615993 5.282083 1.529258 -0.719779 -3.724668 19.164152 -31.453867 3.082121 -3.066020 -50.685319 -6.796063 11.368109 9.246754 -26.942547 2.491288 9.847721 -7.649082 -3.180892 30.036518 1.599055 4.132624 47.582372 4.355277 14.052755 -16.015884 28.762162 3.099353 2.173229 5.437472 5.430097 
-0.499982 0.174809 1.622789 -46.065965 -1.502216 87.865087 0.059321 -4.965611 -4.284925 -4.382803 -20.663857 6.723514 -1.894899 2.009550 -13.004973 0.000000 -0.000000 0.000000 -0.330593 2.596719 -5.194301 -2.196594 14.066055 14.557695 3.676674 -3.405702 -12.984205 0.000000 -0.000000 0.000000 1.714512 3.183453 13.192822 0.186971 2.272169 1.005072 -1.759718 2.995032 2.546177 3.216834 5.074457 1.227962 -0.813067 -3.668126 19.713027 -30.949827 3.143356 -2.085899 -51.409820 -6.510129 11.274235 9.228188 -27.538351 3.545446 9.933588 -7.540152 -3.692799 29.598440 1.957328 4.111039 47.389162 4.503037 13.705048 -16.071576 28.669521 3.337240 1.943428 5.530574 4.974007 
-0.502047 0.179999 1.622817 -43.142781 -1.619214 87.478267 0.107825 -4.817970 -5.125197 -4.916316 -21.513369 8.341194 -2.894076 1.708936 -14.116234 0.000000 -0.000000 0.000000 -0.327244 1.835164 -4.086133 -2.145024 12.758918 13.670426 3.393953 -4.249980 -12.920561 0.000000 -0.000000 0.000000 2.231617 3.205177 13.731720 0.283227 2.184329 0.766135 -1.605244 2.824715 2.587465 3.211248 5.172328 1.043673 -0.955209 -3.327908 20.293407 -30.958710 3.115204 -2.013567 -51.848177 -6.070689 11.061550 9.317548 -27.349313 3.973081 10.777475 -7.098893 -4.068163 29.503823 2.100871 4.040407 46.956071 4.844017 13.179501 -15.941911 28.457521 3.078153 1.162245 5.553164 4.517721 
-0.503495 0.186295 1.622372 -40.570295 -1.469017 87.773919 0.687065 -4.810358 -6.868873 -5.674718 -20.807968 10.297913 -3.614344 1.913469 -15.916551 0.000000 -0.000000 0.000000 -0.167835 0.502015 -4.244697 -1.778009 11.825393 13.304029 3.194434 -4.306071 -12.835431 0.000000 -0.000000 0.000000 2.648990 3.833626 13.529251 0.636226 1.979194 0.575260 -1.419023 3.000066 2.367565 3.759573 5.440964 1.242671 -1.002555 -2.985677 20.674449 -31.428433 3.043445 -2.425809 -51.975947 -5.395251 11.078779 9.134987 -26.786407 4.678718 10.164812 -6.827965 -3.879091 29.752328 1.761895 4.410862 46.235684 4.918442 12.378275 -16.363067 29.090440 2.754403 1.740333 5.396525 4.526449 
-0.506487 0.191266 1.622485 -38.192032 -1.418558 87.068302 0.966995 -4.034331 -7.223112 -6.089001 -18.534335 11.923888 -3.411542 3.124888 -17.377571 0.000000 -0.000000 0.000000 -0.032990 0.291541 -2.880068 -1.630431 10.150014 12.444795 2.801311 -4.651510 -12.923979 0.000000 -0.000000 0.000000 2.630462 3.884648 14.337924 0.653305 2.242052 0.185761 -1.043811 3.347147 2.345075 4.644117 5.721728 1.178081 -0.971924 -2.303722 21.599229 -31.558318 2.974615 -2.395748 -52.603408 -5.449263 10.330819 8.996848 -25.475499 3.780923 11.710279 -7.052650 -2.771560 29.757572 1.884975 4.587709 46.188335 5.234464 11.911556 -16.434979 28.510206 2.369168 0.477341 5.993130 4.531106 
